#!OML:ASF F:\VICON\USERDATA\INSTALL\rory3\rory3.ASF
:FULLY-SPECIFIED
:DEGREES
5018
root -2.17853 14.5114 -17.9913 -540.225 -1.39177 534.448
lowerback 19.4217 -2.56661 -8.30812
upperback -4.88337 -5.81474 -0.770191
thorax -15.9135 -1.88395 5.69233
lowerneck -9.63013 -9.51433 -5.60401
upperneck 22.6562 -12.9424 7.0963
head 9.57842 -5.37589 1.93048
rclavicle -2.10619e-014 -1.62506e-014
rhumerus 48.6354 29.7157 -44.7699
rradius 60.1681
rwrist -60.9407
rhand -5.48939 9.26351
rfingers 7.12502
rthumb 20.3231 -19.6931
lclavicle -2.10619e-014 -1.62506e-014
lhumerus 8.83692 -45.5412 86.8811
lradius 90.7848
lwrist 36.3122
lhand -4.99446 23.5507
lfingers 7.12502
lthumb 20.7987 52.4559
rfemur -48.0982 -0.222736 11.8576
rtibia 67.8908
rfoot -15.4012 6.65101
rtoes -20.0643
lfemur 12.8967 10.4875 -13.6652
ltibia 31.7595
lfoot -35.4966 9.16423
ltoes -16.7767
5019
root -2.19765 14.4987 -18.0285 -540.38 -1.52543 533.573
lowerback 18.907 -2.61183 -8.92694
upperback -4.65651 -6.02335 -1.07304
thorax -15.2716 -2.00144 5.69728
lowerneck -4.10156 -7.6149 -4.77763
upperneck 16.4173 -10.532 8.62645
head 6.36573 -4.45955 2.80689
rclavicle -6.563e-014 -3.37437e-014
rhumerus 48.7391 29.5576 -44.7637
rradius 60.0886
rwrist -60.8973
rhand -5.58595 9.9838
rfingers 7.12502
rthumb 20.2303 -18.9827
lclavicle -6.563e-014 -3.37437e-014
lhumerus 9.22491 -45.7443 86.6467
lradius 90.7112
lwrist 36.7706
lhand -5.17731 23.5421
lfingers 7.12502
lthumb 20.623 52.4665
rfemur -47.9747 -0.892353 10.7875
rtibia 68.4305
rfoot -15.917 7.21082
rtoes -19.7122
lfemur 14.0427 10.3214 -14.7324
ltibia 30.3769
lfoot -35.15 9.26664
ltoes -16.251
5020
root -2.24527 14.455 -18.1206 -540.971 -1.91763 530.746
lowerback 18.0664 -2.55424 -11.0511
upperback -4.25635 -6.54774 -2.0015
thorax -14.1272 -2.2467 5.8776
lowerneck -8.80106 -9.51746 -5.95759
upperneck 21.6832 -13.0306 7.8216
head 9.16891 -5.43949 2.25869
rclavicle -1.2202e-014 -2.16178e-014
rhumerus 48.6951 29.5925 -44.7166
rradius 60.1131
rwrist -61.0235
rhand -5.18885 9.54264
rfingers 7.12502
rthumb 20.612 -19.383
lclavicle -1.2202e-014 -2.16178e-014
lhumerus 9.26419 -45.8839 86.7222
lradius 90.6427
lwrist 36.9547
lhand -5.34683 23.6532
lfingers 7.12502
lthumb 20.4601 52.5952
rfemur -47.3667 -2.76628 7.27569
rtibia 69.4334
rfoot -16.9223 8.95129
rtoes -19.1163
lfemur 16.1797 9.90055 -18.1188
ltibia 28.697
lfoot -35.0244 9.97694
ltoes -16.4893
5021
root -2.24779 14.4564 -18.1152 -540.889 -1.80376 530.816
lowerback 18.145 -2.57308 -11.0327
upperback -4.35692 -6.58068 -1.94962
thorax -14.2852 -2.2433 5.94606
lowerneck -8.52109 -9.51538 -6.01366
upperneck 21.5466 -13.0303 7.90498
head 9.07968 -5.4469 2.3089
rclavicle 3.22249e-014 2.75565e-014
rhumerus 48.517 29.6083 -44.7449
rradius 60.1458
rwrist -61.0458
rhand -5.04842 9.44458
rfingers 7.12502
rthumb 20.7469 -19.4664
lclavicle 3.22249e-014 2.75565e-014
lhumerus 9.2732 -45.9226 86.8454
lradius 90.5223
lwrist 37.3916
lhand -4.97238 23.7895
lfingers 7.12502
lthumb 20.8199 52.6924
rfemur -47.6117 -2.69984 7.3676
rtibia 69.6847
rfoot -16.9489 9.04391
rtoes -18.4138
lfemur 16.7252 9.97089 -18.1025
ltibia 27.5431
lfoot -34.4203 10.2006
ltoes -16.6555
5022
root -2.25371 14.4602 -18.1077 -540.844 -1.72265 530.825
lowerback 18.1998 -2.61536 -11.0353
upperback -4.35579 -6.64209 -1.9334
thorax -14.3037 -2.26802 5.98685
lowerneck -8.47509 -9.49428 -5.9682
upperneck 21.436 -13.0089 7.90213
head 9.02767 -5.44252 2.30548
rclavicle -8.44835e-016 3.67006e-014
rhumerus 48.5799 29.5321 -44.8728
rradius 60.0098
rwrist -60.8943
rhand -5.07499 9.57649
rfingers 7.12502
rthumb 20.7214 -19.3372
lclavicle -8.44835e-016 3.67006e-014
lhumerus 9.52684 -45.9534 86.7067
lradius 90.5157
lwrist 38.1344
lhand -4.93964 23.955
lfingers 7.12502
lthumb 20.8514 52.8545
rfemur -47.7642 -2.67309 7.37231
rtibia 69.8382
rfoot -16.9964 9.08736
rtoes -18.3382
lfemur 17.0528 9.94695 -18.1772
ltibia 26.7833
lfoot -34.1843 10.2153
ltoes -16.4426
5023
root -2.25859 14.4601 -18.0924 -540.754 -1.58848 530.92
lowerback 18.2133 -2.61963 -10.8866
upperback -4.33047 -6.61168 -1.94577
thorax -14.3018 -2.26817 5.88301
lowerneck -8.36808 -9.54858 -6.05966
upperneck 21.2602 -13.1159 8.1294
head 8.97914 -5.48836 2.38739
rclavicle 9.60689e-015 8.10048e-015
rhumerus 48.6105 29.404 -44.8289
rradius 60.0504
rwrist -60.6707
rhand -5.5861 9.41817
rfingers 7.12502
rthumb 20.2302 -19.5484
lclavicle 9.60689e-015 8.10048e-015
lhumerus 9.91217 -46.2394 86.4515
lradius 90.489
lwrist 38.5465
lhand -5.11418 24.147
lfingers 7.12502
lthumb 20.6837 53.0648
rfemur -47.9649 -2.55944 7.49334
rtibia 69.784
rfoot -16.879 9.08031
rtoes -18.8544
lfemur 16.7422 9.99795 -18.1292
ltibia 27.0786
lfoot -34.3993 10.0625
ltoes -16.1129
